<svg width="380" height="380" viewBox="0 0 380 380" fill="none" xmlns="http://www.w3.org/2000/svg">
<path d="M164.836 119.819C166.724 120.117 166.724 120.119 166.723 120.12L166.723 120.123L166.722 120.131L166.719 120.149C166.716 120.163 166.713 120.18 166.71 120.2C166.702 120.24 166.692 120.292 166.679 120.356C166.652 120.484 166.612 120.66 166.554 120.884C166.439 121.331 166.251 121.965 165.954 122.778C165.359 124.403 164.328 126.736 162.561 129.701C159.391 135.018 153.859 142.359 144.245 151.29C174.215 152.037 199.249 142.382 217.066 132.257C226.427 126.938 233.778 121.498 238.783 117.394C241.285 115.343 243.198 113.627 244.481 112.429C245.122 111.83 245.606 111.361 245.927 111.044C246.087 110.886 246.207 110.766 246.285 110.687C246.324 110.647 246.352 110.618 246.371 110.599L246.39 110.579L246.394 110.575L246.394 110.575L248.676 108.201L249.605 111.36L247.771 111.899C249.605 111.36 249.605 111.36 249.605 111.361L249.606 111.363L249.608 111.372L249.618 111.405L249.657 111.538L249.809 112.058C249.943 112.515 250.139 113.187 250.39 114.052C250.893 115.78 251.615 118.275 252.495 121.344C254.254 127.483 256.643 135.919 259.161 145.11C264.188 163.457 269.765 184.924 271.854 197.08C275.347 217.398 269.946 232.824 266.752 241.949C266.131 243.723 265.593 245.259 265.221 246.546C265.274 246.591 265.344 246.646 265.435 246.711C266.032 247.134 267.091 247.622 268.622 248.108C271.637 249.067 275.941 249.853 280.543 250.296C285.138 250.738 289.92 250.828 293.881 250.442C295.863 250.248 297.587 249.94 298.956 249.522C300.272 249.12 301.096 248.665 301.541 248.254C301.554 248.168 301.572 247.963 301.522 247.566C301.424 246.79 301.117 245.698 300.585 244.253C299.792 242.096 298.616 239.455 297.241 236.368C296.775 235.321 296.286 234.222 295.781 233.074C291.852 224.135 287.125 212.51 286.095 200.666C284.951 187.505 287.552 176.25 289.889 166.133L290 165.651C292.388 155.311 294.375 146.332 292.335 137.232C289.239 123.422 285.016 111.924 278.531 103.662C272.114 95.4881 263.411 90.3865 251.035 89.4485L249.757 89.3516L249.362 88.1322C243.667 70.5619 235.979 59.081 226.176 51.9616C216.376 44.8448 204.22 41.9109 189.237 41.9109C161.549 41.9109 131.734 52.4301 109.359 70.629C87.0077 88.8092 72.2157 114.525 74.1511 144.963C76.2871 178.554 73.8527 204.024 68.3628 222.675C63.3568 239.682 55.7697 251.141 46.6753 257.825C47.8685 258.434 49.4593 259.208 51.4464 260.094C56.4732 262.334 64.037 265.292 74.1199 268.121C93.4546 273.546 122.065 278.501 159.831 277.008C151.507 269.857 143.108 261.18 136.457 252.008C128.824 241.481 123.322 230.065 123.161 219.433C122.97 206.806 123.825 173.765 124.089 166.926C124.704 151.03 134.911 138.776 144.627 130.626C149.514 126.527 154.355 123.398 157.971 121.295C159.781 120.242 161.29 119.443 162.351 118.904C162.881 118.635 163.3 118.431 163.59 118.293C163.669 118.255 163.739 118.222 163.798 118.194C163.847 118.171 163.889 118.152 163.924 118.136C163.963 118.118 163.993 118.104 164.014 118.094L164.039 118.083L164.046 118.079L164.049 118.078C164.05 118.078 164.05 118.078 164.836 119.819ZM164.836 119.819L166.724 120.117L167.275 116.623L164.05 118.078L164.836 119.819ZM265.067 246.388C265.07 246.388 265.081 246.402 265.096 246.428C265.072 246.401 265.065 246.388 265.067 246.388Z" fill="#FC909F" stroke="black" stroke-width="3.82184"/>
<path d="M250 89C250.5 93.5 249.7 102.5 248.5 108.5" stroke="black" stroke-width="4"/>
</svg>
