<svg xmlns="http://www.w3.org/2000/svg" version="1.1" xmlns:xlink="http://www.w3.org/1999/xlink" xmlns:svgjs="http://svgjs.dev/svgjs" width="1000" height="1000"><style>
    #light-icon {
      display: inline;
    }
    #dark-icon {
      display: none;
    }

    @media (prefers-color-scheme: dark) {
      #light-icon {
        display: none;
      }
      #dark-icon {
        display: inline;
      }
    }
  </style><g id="light-icon"><svg xmlns="http://www.w3.org/2000/svg" version="1.1" xmlns:xlink="http://www.w3.org/1999/xlink" xmlns:svgjs="http://svgjs.dev/svgjs" width="1000" height="1000"><g clip-path="url(#SvgjsClipPath1048)"><rect width="1000" height="1000" fill="#383c2b"></rect><g transform="matrix(7,0,0,7,150,150)"><svg xmlns="http://www.w3.org/2000/svg" version="1.1" xmlns:xlink="http://www.w3.org/1999/xlink" xmlns:svgjs="http://svgjs.dev/svgjs" width="100" height="100"><svg id="Lager_1" data-name="Lager 1" xmlns="http://www.w3.org/2000/svg" version="1.1" viewBox="0 0 100 100">
  <defs>
    <style>
      .cls-1 {
        fill: #b9be98;
        stroke-width: 0px;
      }
    </style>
  <clipPath id="SvgjsClipPath1048"><rect width="1000" height="1000" x="0" y="0" rx="500" ry="500"></rect></clipPath></defs>
  <path class="cls-1" d="M85.3,48.7v-1c7.9-1,12.1-5.7,12.1-12.7,0-10.7-9-16.2-25.2-16.2s-28.3,7.9-29.2,19.8c0,.9.7,1.8,1.6,1.8h11.1c.8,0,1.6-.6,1.6-1.5.5-5.1,3.6-7,13.6-7s12.9,1.8,12.9,6.1-2.4,5.7-7.6,5.7h-14.6c-.9,0-1.6.7-1.6,1.6v7.9c0,.9.7,1.6,1.6,1.6h15.9c5.7,0,8.6,1.9,8.6,6.4s-3.5,7.1-15,7.1-14.4-2-14.8-7.2c-.5-7.7-5.6-13.7-18.5-15.8l-17.1-2.7c-5.1-.9-7.1-2.2-7.1-5.7s3-5.8,12.8-5.8,10.7.8,12.8,2.5c1.1-4.3,3.3-8,6.4-10.9-4.4-2.6-10.3-4-17.9-4C7.4,18.6,0,28.3,0,37.4s6.4,15.3,17.3,17.1l17.1,2.5c6.3,1.1,8.3,2.5,8.3,6.2s-2.5,5.7-13.4,5.7-15.2-2.3-15.2-7.9h0c0-.9-.7-1.6-1.6-1.6H2.2c-.9,0-1.7.8-1.6,1.8.8,13.6,11,20.2,28.7,20.2s16.3-2.2,20.6-5.6h0c4.7,3.7,11.9,5.7,21.8,5.7,17.7,0,28.2-6.2,28.2-18,.1-9-5.7-13.5-14.6-14.8Z"></path>
</svg></svg></g></g></svg></g><g id="dark-icon"><svg xmlns="http://www.w3.org/2000/svg" version="1.1" xmlns:xlink="http://www.w3.org/1999/xlink" xmlns:svgjs="http://svgjs.dev/svgjs" width="1000" height="1000"><g clip-path="url(#SvgjsClipPath1049)"><rect width="1000" height="1000" fill="#383c2b"></rect><g transform="matrix(7,0,0,7,150,150)"><svg xmlns="http://www.w3.org/2000/svg" version="1.1" xmlns:xlink="http://www.w3.org/1999/xlink" xmlns:svgjs="http://svgjs.dev/svgjs" width="100" height="100"><svg id="Lager_1" data-name="Lager 1" xmlns="http://www.w3.org/2000/svg" version="1.1" viewBox="0 0 100 100">
  <defs>
    <style>
      .cls-1 {
        fill: #b9be98;
        stroke-width: 0px;
      }
    </style>
  <clipPath id="SvgjsClipPath1049"><rect width="1000" height="1000" x="0" y="0" rx="500" ry="500"></rect></clipPath></defs>
  <path class="cls-1" d="M85.3,48.7v-1c7.9-1,12.1-5.7,12.1-12.7,0-10.7-9-16.2-25.2-16.2s-28.3,7.9-29.2,19.8c0,.9.7,1.8,1.6,1.8h11.1c.8,0,1.6-.6,1.6-1.5.5-5.1,3.6-7,13.6-7s12.9,1.8,12.9,6.1-2.4,5.7-7.6,5.7h-14.6c-.9,0-1.6.7-1.6,1.6v7.9c0,.9.7,1.6,1.6,1.6h15.9c5.7,0,8.6,1.9,8.6,6.4s-3.5,7.1-15,7.1-14.4-2-14.8-7.2c-.5-7.7-5.6-13.7-18.5-15.8l-17.1-2.7c-5.1-.9-7.1-2.2-7.1-5.7s3-5.8,12.8-5.8,10.7.8,12.8,2.5c1.1-4.3,3.3-8,6.4-10.9-4.4-2.6-10.3-4-17.9-4C7.4,18.6,0,28.3,0,37.4s6.4,15.3,17.3,17.1l17.1,2.5c6.3,1.1,8.3,2.5,8.3,6.2s-2.5,5.7-13.4,5.7-15.2-2.3-15.2-7.9h0c0-.9-.7-1.6-1.6-1.6H2.2c-.9,0-1.7.8-1.6,1.8.8,13.6,11,20.2,28.7,20.2s16.3-2.2,20.6-5.6h0c4.7,3.7,11.9,5.7,21.8,5.7,17.7,0,28.2-6.2,28.2-18,.1-9-5.7-13.5-14.6-14.8Z"></path>
</svg></svg></g></g></svg></g></svg>